<?xml version="1.0" encoding="utf-8"?>
<!-- Generator: Adobe Illustrator 16.0.0, SVG Export Plug-In . SVG Version: 6.00 Build 0)  -->
<!DOCTYPE svg PUBLIC "-//W3C//DTD SVG 1.1//EN" "http://www.w3.org/Graphics/SVG/1.1/DTD/svg11.dtd">
<svg version="1.1" id="Layer_1" xmlns="http://www.w3.org/2000/svg" xmlns:xlink="http://www.w3.org/1999/xlink" x="0px" y="0px"
	 width="24px" height="17px" viewBox="0 0 24 17" enable-background="new 0 0 24 17" xml:space="preserve">
<path fill="#FFFFFF" d="M20,14.016c1.1,0,1.99-0.899,1.99-2l0.01-10c0-1.104-0.896-2-2-2H4c-1.11,0-2,0.89-2,2v10
	c0,1.105,0.896,2,2,2H0v2h24v-2H20z M13,10.486v-2.19c-2.78,0-4.61,0.851-6,2.72c0.56-2.669,2.11-5.33,6-5.87v-2.13l4,3.73
	L13,10.486z"/>
<path fill="none" stroke="#CF011A" stroke-width="2" stroke-linecap="square" d="M22.351,1.608L1.75,15.5"/>
</svg>
