<svg xmlns="http://www.w3.org/2000/svg" width="26" height="23" viewBox="0 0 26 23">
    <g fill="#FFF" fill-rule="evenodd">
        <path d="M10.4 3.9C4.656 3.9 0 7.56 0 12.075c0 2.214 1.122 4.227 2.942 5.699-.105 1.5-.459 3.337-1.483 4.326 2.039 0 4.122-1.305 5.439-2.325 1.094.307 2.272.476 3.502.476 5.744 0 10.4-3.658 10.4-8.176C20.8 7.56 16.144 3.9 10.4 3.9z"/>
        <path d="M24.51 12.242c.86-1.195 1.353-2.585 1.353-4.067C25.863 3.66 21.284 0 15.636 0 13.15 0 10.872.71 9.1 1.887a13.528 13.528 0 0 1 2.602-.252c6.083 0 11.014 4.027 11.014 8.993 0 1.957-.763 3.77-2.064 5.244C21.944 16.892 23.995 18.2 26 18.2c-1.426-1.406-1.528-4.523-1.49-5.958z"/>
    </g>
</svg>
