<?xml version="1.0" encoding="utf-8"?>
<!-- Generator: Adobe Illustrator 16.0.0, SVG Export Plug-In . SVG Version: 6.00 Build 0)  -->
<!DOCTYPE svg PUBLIC "-//W3C//DTD SVG 1.1//EN" "http://www.w3.org/Graphics/SVG/1.1/DTD/svg11.dtd">
<svg version="1.1" id="Layer_1" xmlns="http://www.w3.org/2000/svg" xmlns:xlink="http://www.w3.org/1999/xlink" x="0px" y="0px"
	 width="18px" height="26px" viewBox="0 0 18 26" enable-background="new 0 0 18 26" xml:space="preserve">
<g>
	<path fill="#FFFFFF" d="M9.002,17.994c1.375,0,2.553-0.49,3.53-1.469C13.512,15.548,14,14.371,14,12.996V5
		c0-1.375-0.489-2.552-1.468-3.53C11.555,0.488,10.377,0,9.002,0c-1.374,0-2.551,0.49-3.53,1.468
		c-0.979,0.98-1.468,2.156-1.468,3.53v7.998c0,1.375,0.49,2.552,1.468,3.529C6.451,17.505,7.628,17.994,9.002,17.994z"/>
	<path fill="#FFFFFF" d="M17.703,10.294C17.52,10.102,17.266,9.995,17,9.997c-0.266-0.002-0.52,0.105-0.703,0.297
		c-0.191,0.184-0.299,0.438-0.297,0.703v2c0,1.926-0.686,3.573-2.055,4.942c-1.369,1.371-3.016,2.055-4.943,2.055
		c-1.926,0-3.574-0.686-4.944-2.055s-2.054-3.017-2.054-4.943v-2c0.002-0.265-0.104-0.519-0.296-0.702
		c-0.183-0.192-0.438-0.299-0.703-0.297c-0.265-0.002-0.52,0.105-0.703,0.297c-0.191,0.183-0.299,0.438-0.297,0.703v2
		c0,2.3,0.768,4.303,2.304,6.005c1.536,1.703,3.434,2.68,5.693,2.93v2.062H4.004c-0.265-0.003-0.52,0.104-0.703,0.297
		c-0.192,0.183-0.299,0.438-0.297,0.703c0,0.271,0.099,0.505,0.297,0.702c0.184,0.191,0.438,0.299,0.703,0.297H14
		c0.271,0,0.506-0.1,0.703-0.297c0.191-0.183,0.299-0.438,0.297-0.702c0.002-0.266-0.105-0.521-0.297-0.703
		c-0.184-0.192-0.438-0.3-0.703-0.297h-3.998V21.93c2.26-0.25,4.157-1.226,5.693-2.929C17.232,17.3,18,15.298,18,12.996v-2
		C18.002,10.731,17.895,10.477,17.703,10.294z"/>
</g>
<path fill="none" stroke="#CF011A" stroke-width="2" stroke-linecap="square" d="M16.423,2.325L1.69,24.252"/>
</svg>
