<svg xmlns="http://www.w3.org/2000/svg" width="18" height="26" viewBox="0 0 18 26">
    <g fill="#FFF" fill-rule="evenodd">
        <path d="M9.002 17.994c1.375 0 2.552-.49 3.53-1.468.98-.978 1.468-2.155 1.468-3.53V5c0-1.375-.489-2.552-1.468-3.53C11.554.488 10.377 0 9.002 0c-1.374 0-2.551.49-3.53 1.468-.979.98-1.468 2.156-1.468 3.53v7.998c0 1.375.49 2.552 1.468 3.53.979.979 2.156 1.468 3.53 1.468z"/>
        <path d="M17.703 10.294A.96.96 0 0 0 17 9.997a.961.961 0 0 0-.703.297.961.961 0 0 0-.297.703v2c0 1.926-.685 3.574-2.054 4.943-1.37 1.37-3.017 2.054-4.944 2.054-1.926 0-3.574-.685-4.944-2.054-1.37-1.369-2.054-3.017-2.054-4.944v-2a.96.96 0 0 0-.296-.702.96.96 0 0 0-.703-.297.96.96 0 0 0-.703.297.96.96 0 0 0-.297.703v2c0 2.3.768 4.303 2.304 6.005 1.536 1.703 3.434 2.679 5.693 2.929v2.062H4.004a.96.96 0 0 0-.703.297.96.96 0 0 0-.297.703c0 .27.099.505.297.703a.961.961 0 0 0 .703.296H14c.271 0 .506-.099.703-.296a.96.96 0 0 0 .297-.703.96.96 0 0 0-.297-.703.96.96 0 0 0-.703-.297h-3.998V21.93c2.26-.25 4.157-1.226 5.693-2.929C17.232 17.3 18 15.298 18 12.996v-2a.96.96 0 0 0-.297-.702z"/>
    </g>
</svg>
