<svg xmlns="http://www.w3.org/2000/svg" width="24" height="18" viewBox="0 0 24 18">
    <g fill="#000" fill-rule="evenodd">
        <path d="M11.977 1.996C5.828 1.996.35 8.388.118 8.66a.498.498 0 0 0 0 .645c.138.163 2.152 2.501 5.056 4.364l3.128-3.128a3.972 3.972 0 0 1-.317-1.558 3.996 3.996 0 0 1 3.992-3.992c.553 0 1.079.113 1.558.317l2.572-2.572a12.19 12.19 0 0 0-4.13-.74z"/>
        <path fill-rule="nonzero" d="M23.865 8.698c-.128-.184-2.247-3.167-5.809-5.089L20.814.852a.5.5 0 0 0-.706-.706L3.141 17.113a.5.5 0 0 0 .706.707l3.129-3.13c1.542.753 3.243 1.28 5.001 1.28 6.15 0 11.628-6.392 11.859-6.665a.5.5 0 0 0 .029-.607zm-11.888 4.277a3.957 3.957 0 0 1-2.435-.851l5.576-5.576c.525.676.851 1.514.851 2.435a3.996 3.996 0 0 1-3.992 3.992z"/>
    </g>
</svg>
