<svg xmlns="http://www.w3.org/2000/svg" width="20" height="20" viewBox="0 0 20 20">
    <path fill="#F5A623" fill-rule="nonzero" d="M10 0C4.477 0 0 4.477 0 10c0 5.522 4.477 10 10 10 5.522 0 10-4.478 10-10 0-5.523-4.478-10-10-10zM5.205 14.773l2.368-3.815a7.498 7.498 0 0 0 1.446 1.448l-3.814 2.367zm9.371-6.235c-.252.252-.679.277-1.153.116l-1.269 1.268c.638 1.035.79 2.044.292 2.542-.202.202-.487.297-.823.297-.62 0-1.415-.325-2.185-.906l-.05-.04a6.114 6.114 0 0 1-.384-.32l-.06-.054a6.963 6.963 0 0 1-.434-.436c-.045-.05-.087-.1-.13-.15l-.07-.081a6.34 6.34 0 0 1-.16-.201l-.02-.025c-.901-1.19-1.19-2.442-.616-3.016.202-.201.487-.297.823-.297.496 0 1.103.208 1.72.588l1.268-1.267c-.162-.475-.137-.902.115-1.154.473-.472 1.558-.153 2.424.712.866.866 1.185 1.952.712 2.424z"/>
</svg>
