<svg xmlns="http://www.w3.org/2000/svg" width="24" height="27" viewBox="0 0 24 27">
    <g fill="#000" fill-rule="evenodd">
        <path d="M17.033 11.478c0-.576-.468-1.043-1.044-1.043H5.241a1.043 1.043 0 1 0 0 2.087H15.99c.576 0 1.044-.467 1.044-1.044zM5.241 14.609a1.043 1.043 0 1 0 0 2.087h6.528a1.043 1.043 0 1 0 0-2.087H5.24z"/>
        <path d="M7.694 24.626h-3.49a2.09 2.09 0 0 1-2.087-2.087V4.174a2.09 2.09 0 0 1 2.087-2.087h12.829a2.09 2.09 0 0 1 2.087 2.087v6.417a1.043 1.043 0 1 0 2.087 0V4.174A4.179 4.179 0 0 0 17.033 0H4.203A4.179 4.179 0 0 0 .03 4.174v18.365a4.179 4.179 0 0 0 4.174 4.174h3.49a1.043 1.043 0 1 0 0-2.087z"/>
        <path fill-rule="nonzero" d="M23.055 15.108a3.134 3.134 0 0 0-4.426 0l-5.73 5.715c-.121.122-.21.271-.26.436l-1.248 4.107a1.043 1.043 0 0 0 1.277 1.31l4.211-1.168c.174-.048.332-.14.459-.267l5.717-5.706a3.134 3.134 0 0 0 0-4.427zm-6.997 8.463l-2.119.586.62-2.041 3.866-3.857 1.476 1.476-3.843 3.836zm5.522-5.512l-.202.202-1.476-1.476.201-.201a1.045 1.045 0 0 1 1.477 1.475z"/>
        <path d="M15.99 6.26H5.24a1.043 1.043 0 1 0 0 2.088H15.99a1.043 1.043 0 1 0 0-2.087z"/>
    </g>
</svg>
