<?xml version="1.0" encoding="utf-8"?>
<!-- Generator: Adobe Illustrator 16.0.0, SVG Export Plug-In . SVG Version: 6.00 Build 0)  -->
<!DOCTYPE svg PUBLIC "-//W3C//DTD SVG 1.1//EN" "http://www.w3.org/Graphics/SVG/1.1/DTD/svg11.dtd">
<svg version="1.1" id="Layer_1" xmlns="http://www.w3.org/2000/svg" xmlns:xlink="http://www.w3.org/1999/xlink" x="0px" y="0px"
	 width="26px" height="23px" viewBox="0 0 26 23" enable-background="new 0 0 26 23" xml:space="preserve">
<g>
	<path fill="#FFFFFF" d="M10.4,3.9C4.656,3.9,0,7.56,0,12.075c0,2.214,1.122,4.227,2.942,5.698c-0.105,1.5-0.459,3.338-1.483,4.326
		c2.039,0,4.122-1.305,5.439-2.324c1.094,0.307,2.272,0.476,3.502,0.476c5.745,0,10.4-3.658,10.4-8.176
		C20.8,7.56,16.145,3.9,10.4,3.9z"/>
	<path fill="#FFFFFF" d="M24.51,12.242c0.86-1.195,1.354-2.585,1.354-4.067C25.863,3.66,21.284,0,15.636,0
		C13.15,0,10.872,0.71,9.1,1.887c0.857-0.168,1.729-0.252,2.602-0.252c6.083,0,11.014,4.027,11.014,8.993
		c0,1.957-0.763,3.771-2.063,5.244C21.943,16.893,23.995,18.2,26,18.2C24.574,16.794,24.473,13.677,24.51,12.242z"/>
</g>
<path fill="none" stroke="#CF011A" stroke-width="2" stroke-linecap="square" d="M24.134,1.506L1.736,21.375"/>
</svg>
