<svg xmlns="http://www.w3.org/2000/svg" xmlns:xlink="http://www.w3.org/1999/xlink" width="118" height="107" viewBox="0 0 118 107">
    <defs>
        <rect id="b" width="60" height="49" rx="24.5"/>
        <filter id="a" width="266.7%" height="304.1%" x="-83.3%" y="-81.6%" filterUnits="objectBoundingBox">
            <feOffset dy="10" in="SourceAlpha" result="shadowOffsetOuter1"/>
            <feGaussianBlur in="shadowOffsetOuter1" result="shadowBlurOuter1" stdDeviation="15"/>
            <feColorMatrix in="shadowBlurOuter1" values="0 0 0 0 0 0 0 0 0 0 0 0 0 0 0 0 0 0 0.196557971 0"/>
        </filter>
    </defs>
    <g fill="none" fill-rule="evenodd">
        <g transform="translate(29 19)">
            <use fill="#000" filter="url(#a)" xlink:href="#b"/>
            <use fill="#D0021B" xlink:href="#b"/>
        </g>
        <path fill="#FFF" fill-rule="nonzero" d="M58.983 31C52.365 31 47 36.367 47 42.985c0 6.618 5.365 11.985 11.983 11.985 6.621 0 11.987-5.367 11.987-11.985C70.97 36.367 65.604 31 58.983 31zm5.153 15.23l-1.909 1.907s-3.02-3.24-3.245-3.24c-.222 0-3.243 3.24-3.243 3.24l-1.91-1.906s3.244-2.976 3.244-3.241c0-.27-3.243-3.246-3.243-3.246l1.91-1.91s3.045 3.24 3.242 3.24c.199 0 3.245-3.24 3.245-3.24l1.909 1.91s-3.244 3.02-3.244 3.246c0 .215 3.244 3.24 3.244 3.24z"/>
    </g>
</svg>
