<svg xmlns="http://www.w3.org/2000/svg" width="91" height="25" viewBox="0 0 91 25">
    <path fill="#151515" fill-rule="evenodd" d="M5.942.548v9.606c0 .786.186 1.408.559 1.865.373.458.975.687 1.807.687s1.447-.23 1.846-.687c.399-.457.598-1.079.598-1.865V.548h5.746v9.606c0 1.62-.364 3.005-1.092 4.152-.728 1.148-1.725 2.01-2.99 2.588-1.265.578-2.678.867-4.238.867-1.56 0-2.942-.289-4.147-.867A6.451 6.451 0 0 1 1.21 14.32C.534 13.179.196 11.79.196 10.154V.548h5.746zm21.354 3.298c1.144 0 2.175.277 3.094.83.919.555 1.642 1.357 2.171 2.408.529 1.051.793 2.291.793 3.72 0 1.428-.264 2.668-.793 3.72-.529 1.05-1.252 1.853-2.171 2.407-.919.553-1.95.83-3.094.83-.953 0-1.772-.18-2.457-.542-.685-.36-1.209-.854-1.573-1.48v8.354h-5.772V4.015h5.772v1.854c.364-.626.888-1.12 1.573-1.481.685-.361 1.504-.542 2.457-.542zm-1.924 4.67c-.624 0-1.135.201-1.534.603-.399.4-.598.962-.598 1.685 0 .722.2 1.284.598 1.685.399.401.91.602 1.534.602s1.135-.2 1.534-.602c.399-.401.598-.963.598-1.685 0-.723-.2-1.284-.598-1.685-.399-.402-.91-.602-1.534-.602zm15.738 3.997l2.34-8.498h6.136l-4.888 13.578h-7.202L32.608 4.015h6.136l2.366 8.498zm15.478-8.667c1.473 0 2.8.281 3.978.843 1.179.562 2.102 1.368 2.769 2.42.667 1.05 1.001 2.282 1.001 3.695 0 1.412-.334 2.644-1.001 3.695-.667 1.051-1.59 1.858-2.769 2.42-1.179.561-2.505.842-3.978.842-1.473 0-2.8-.28-3.978-.842-1.179-.562-2.102-1.369-2.769-2.42-.667-1.051-1.001-2.283-1.001-3.695 0-1.413.334-2.644 1.001-3.696.667-1.05 1.59-1.857 2.769-2.42 1.179-.56 2.505-.842 3.978-.842zm0 4.623c-.537 0-.988.196-1.352.59-.364.393-.546.974-.546 1.745 0 .77.178 1.352.533 1.745.355.393.81.59 1.365.59.537 0 .988-.197 1.352-.59.364-.393.546-.975.546-1.745 0-.77-.182-1.352-.546-1.746a1.768 1.768 0 0 0-1.352-.59zm18.194 4.574v4.55h-2.184c-4.021 0-6.032-1.854-6.032-5.562V8.47h-1.82V4.015h1.82V.74h5.772v3.274h2.392v4.454h-2.392v3.659c0 .32.082.553.247.698.165.144.438.217.819.217h1.378zm15.906-2.36c0 .337-.043.69-.13 1.06h-9.23c.052.674.217 1.135.494 1.384.277.249.641.373 1.092.373.624 0 1.075-.265 1.352-.794h6.11a5.703 5.703 0 0 1-1.313 2.588c-.667.762-1.508 1.364-2.522 1.805-1.014.441-2.128.662-3.341.662-1.456 0-2.752-.28-3.887-.842-1.135-.562-2.02-1.369-2.652-2.42-.633-1.051-.949-2.283-.949-3.695 0-1.413.316-2.644.949-3.696.633-1.05 1.517-1.857 2.652-2.42 1.135-.56 2.431-.842 3.887-.842s2.752.277 3.887.83c1.135.555 2.02 1.345 2.652 2.372.633 1.027.949 2.239.949 3.635zm-5.85-1.131c0-.514-.156-.895-.468-1.144-.312-.248-.702-.373-1.17-.373-1.057 0-1.664.506-1.82 1.517h3.458z"/>
</svg>
